<?xml version="1.0" encoding="UTF-8"?>
<svg width="1200pt" height="1200pt" version="1.1" viewBox="0 0 1200 1200" xmlns="http://www.w3.org/2000/svg">
 <g>
  <path d="m851.72 574.6c0-75.48-61.414-136.89-136.89-136.89-47.664 0-89.594 24.562-114.09 61.633-20.473-10.609-43.68-16.645-68.281-16.645-74.543 0-137.3 56.16-147.47 128.4h-26.039c-78.238 0-141.89 63.648-141.89 141.88 0 78.254 63.66 141.9 141.89 141.9h279.32c78.238 0 141.89-63.66 141.89-141.9 0-18.648-3.7578-36.602-10.477-53.137 48.219-21.18 82.035-69.266 82.035-125.23zm-213.45 284.27h-279.32c-58.379 0-105.89-47.508-105.89-105.9 0-58.379 47.508-105.88 105.89-105.88h42.637c9.8047 0 17.797-7.8359 18-17.652 1.1992-61.066 51.828-110.75 112.87-110.75 62.293 0 112.98 50.688 112.99 112.97 0 8.543 6 15.898 14.363 17.629 48.875 10.094 84.348 53.699 84.348 103.69 0.011719 58.375-47.496 105.88-105.89 105.88zm113.61-190.63c-17.52-23.484-42.18-41.566-71.102-50.652-3.6719-38.891-22.414-73.391-50.242-97.801 18.012-27.625 48.91-46.078 84.266-46.078 55.645 0 100.89 45.254 100.89 100.89 0.023437 42.543-26.484 78.844-63.816 93.637z"/>
  <path d="m714.82 413.45c9.9375 0 18-8.0625 18-18v-72.312c0-9.9375-8.0625-18-18-18s-18 8.0625-18 18v72.312c0 9.9336 8.0625 18 18 18z"/>
  <path d="m841.51 465.91c4.6094 0 9.2148-1.7539 12.73-5.2695l51.121-51.121c7.0312-7.0312 7.0312-18.422 0-25.453s-18.422-7.0312-25.453 0l-51.121 51.121c-7.0312 7.0312-7.0312 18.422 0 25.453 3.5078 3.5195 8.1133 5.2695 12.723 5.2695z"/>
  <path d="m854.24 688.55c-7.0312-7.0312-18.422-7.0312-25.453 0s-7.0312 18.422 0 25.453l51.121 51.133c3.5156 3.5156 8.125 5.2695 12.73 5.2695 4.6094 0 9.2148-1.7539 12.73-5.2695 7.0312-7.0312 7.0312-18.422 0-25.453z"/>
  <path d="m575.41 460.64c3.5156 3.5156 8.125 5.2695 12.73 5.2695 4.6094 0 9.2148-1.7539 12.73-5.2695 7.0312-7.0312 7.0312-18.422 0-25.453l-51.121-51.133c-7.0312-7.0312-18.422-7.0312-25.453 0s-7.0312 18.422 0 25.453z"/>
  <path d="m964.95 556.6h-72.324c-9.9375 0-18 8.0625-18 18s8.0625 18 18 18h72.324c9.9375 0 18-8.0625 18-18s-8.0664-18-18-18z"/>
 </g>
</svg>
