<?xml version="1.0" encoding="UTF-8"?>
<svg width="1200pt" height="1200pt" version="1.1" viewBox="0 0 1200 1200" xmlns="http://www.w3.org/2000/svg">
 <path d="m750 849.55c0 13.262-5.2695 25.977-14.645 35.355-9.375 9.375-22.094 14.645-35.355 14.645s-25.98-5.2695-35.355-14.645c-9.375-9.3789-14.645-22.094-14.645-35.355s5.2695-25.98 14.645-35.355c9.375-9.3789 22.094-14.645 35.355-14.645s25.98 5.2656 35.355 14.645c9.375 9.375 14.645 22.094 14.645 35.355zm-250-150c13.262 0 25.98-5.2695 35.355-14.645 9.375-9.3789 14.645-22.094 14.645-35.355s-5.2695-25.98-14.645-35.355c-9.375-9.3789-22.094-14.645-35.355-14.645s-25.98 5.2656-35.355 14.645c-9.375 9.375-14.645 22.094-14.645 35.355s5.2695 25.977 14.645 35.355c9.375 9.375 22.094 14.645 35.355 14.645zm207.3-92.648-250 250v-0.003906c-6.3164 6.3242-8.7773 15.539-6.457 24.168 2.3164 8.6289 9.0664 15.367 17.699 17.676 8.6328 2.3047 17.844-0.16797 24.156-6.4922l250-250c6.3164-6.3242 8.7773-15.535 6.457-24.168-2.3164-8.6289-9.0664-15.367-17.699-17.672-8.6328-2.3086-17.844 0.16797-24.156 6.4883zm221.4 6.5508v-0.003906c40.293 69.191 54.875 150.38 41.176 229.27-13.695 78.887-54.797 150.41-116.06 201.96-61.258 51.559-138.75 79.84-218.82 79.867h-70c-80.066-0.027343-157.56-28.309-218.82-79.867-61.262-51.555-102.36-123.08-116.06-201.96-13.699-78.887 0.88281-160.08 41.176-229.27l307.1-526.5h-0.003906c4.8281-7.2031 12.93-11.527 21.602-11.527s16.773 4.3242 21.602 11.527zm-3.6992 171.25c-0.015625-51.312-13.629-101.71-39.449-146.05l-285.55-489.45-285.55 489.45c-34.355 59.02-46.785 128.27-35.094 195.55 11.695 67.281 46.754 128.28 99.008 172.25 52.254 43.965 118.35 68.082 186.64 68.102h70c76.887 0 150.62-30.535 205.01-84.887 54.383-54.352 84.953-128.08 84.992-204.96z"/>
</svg>
