<?xml version="1.0" encoding="UTF-8"?>
<svg width="1200pt" height="1200pt" version="1.1" viewBox="0 0 1200 1200" xmlns="http://www.w3.org/2000/svg">
 <g>
  <path d="m730.8 898.8c-34.801 0-63.602-28.801-63.602-63.602 0-37.199 44.398-99.602 52.801-111.6 2.3984-3.6016 6-4.8008 9.6016-4.8008 3.6016 0 7.1992 2.3984 9.6016 4.8008 36 51.602 52.801 88.801 52.801 111.6 1.1953 36-26.402 63.602-61.203 63.602zm0-145.2c-20.398 30-38.398 64.801-38.398 82.801 0 21.602 18 39.602 39.602 39.602 21.602 0 39.602-18 39.602-39.602-2.4062-9.6016-7.207-31.203-40.805-82.801z"/>
  <path d="m824.4 474c-9.6016-109.2-99.602-192-210-192-116.4 0-211.2 94.801-211.2 211.2 0 33.602 7.1992 66 22.801 94.801h-70.801c-57.602 0-104.4 46.801-104.4 104.4 0 57.602 46.801 104.4 104.4 104.4h297.6c3.6016-8.3984 7.1992-15.602 10.801-24l-309.6 0.003906c-44.398 0-80.398-36-80.398-80.398 0-44.398 36-80.398 80.398-80.398h91.199c4.8008 0 8.3984-2.3984 10.801-6 2.3984-3.6016 2.3984-8.3984 0-12-19.199-30-30-64.801-30-100.8 0-103.2 84-187.2 187.2-187.2 100.8 0 183.6 79.199 187.2 180 0 6 6 12 12 12h1.1992c75.602 0 138 62.398 138 138 0 75.602-61.199 138-138 138h-16.801c4.8008 8.3984 8.3984 16.801 10.801 24h6c88.801 0 162-72 162-162 0.003906-86.402-67.199-157.2-151.2-162z"/>
 </g>
</svg>
