<?xml version="1.0" encoding="UTF-8"?>
<svg width="1200pt" height="1200pt" version="1.1" viewBox="0 0 1200 1200" xmlns="http://www.w3.org/2000/svg">
 <g>
  <path d="m782.18 403.67c-7.1289-75.574-70.934-134.89-148.33-134.89-74.543 0-137.3 56.16-147.47 128.4h-26.039c-78.238 0-141.89 63.648-141.89 141.88 0 78.254 63.66 141.9 141.89 141.9h279.32c78.238 0 141.89-63.66 141.89-141.9 0-62.23-41.039-117.07-99.371-135.38zm-42.516 241.29h-279.34c-58.379 0-105.89-47.508-105.89-105.9 0-58.379 47.508-105.88 105.89-105.88h42.637c9.8047 0 17.797-7.8359 18-17.652 1.1992-61.066 51.828-110.75 112.87-110.75 62.293 0 112.98 50.688 112.99 112.97 0 8.543 6 15.898 14.363 17.629 48.875 10.094 84.348 53.699 84.348 103.69 0.011719 58.375-47.496 105.88-105.88 105.88z"/>
  <path d="m474.28 736.03c0 8.2305-6.6758 14.906-14.906 14.906-8.2305 0-14.902-6.6758-14.902-14.906s6.6719-14.902 14.902-14.902c8.2305 0 14.906 6.6719 14.906 14.902"/>
  <path d="m568.03 736.03c0 8.2305-6.6719 14.906-14.902 14.906-8.2305 0-14.906-6.6758-14.906-14.906s6.6758-14.902 14.906-14.902c8.2305 0 14.902 6.6719 14.902 14.902"/>
  <path d="m661.78 736.03c0 8.2305-6.6758 14.906-14.906 14.906-8.2305 0-14.902-6.6758-14.902-14.906s6.6719-14.902 14.902-14.902c8.2305 0 14.906 6.6719 14.906 14.902"/>
  <path d="m755.53 736.03c0 8.2305-6.6719 14.906-14.902 14.906-8.2305 0-14.906-6.6758-14.906-14.906s6.6758-14.902 14.906-14.902c8.2305 0 14.902 6.6719 14.902 14.902"/>
  <path d="m614.91 796.13c0 8.2305-6.6719 14.902-14.902 14.902s-14.902-6.6719-14.902-14.902c0-8.2305 6.6719-14.906 14.902-14.906s14.902 6.6758 14.902 14.906"/>
  <path d="m521.16 796.13c0 8.2305-6.6719 14.902-14.902 14.902-8.2344 0-14.906-6.6719-14.906-14.902 0-8.2305 6.6719-14.906 14.906-14.906 8.2305 0 14.902 6.6758 14.902 14.906"/>
  <path d="m708.66 796.13c0 8.2305-6.6719 14.902-14.902 14.902-8.2344 0-14.906-6.6719-14.906-14.902 0-8.2305 6.6719-14.906 14.906-14.906 8.2305 0 14.902 6.6758 14.902 14.906"/>
  <path d="m568.03 856.23c0 8.2344-6.6719 14.906-14.902 14.906-8.2305 0-14.906-6.6719-14.906-14.906 0-8.2305 6.6758-14.902 14.906-14.902 8.2305 0 14.902 6.6719 14.902 14.902"/>
  <path d="m661.78 856.23c0 8.2344-6.6758 14.906-14.906 14.906-8.2305 0-14.902-6.6719-14.902-14.906 0-8.2305 6.6719-14.902 14.902-14.902 8.2305 0 14.906 6.6719 14.906 14.902"/>
  <path d="m614.9 916.32c0 8.2305-6.6719 14.902-14.902 14.902s-14.902-6.6719-14.902-14.902c0-8.2305 6.6719-14.906 14.902-14.906s14.902 6.6758 14.902 14.906"/>
 </g>
</svg>
