<?xml version="1.0" encoding="UTF-8"?>
<svg width="1200pt" height="1200pt" version="1.1" viewBox="0 0 1200 1200" xmlns="http://www.w3.org/2000/svg">
 <g>
  <path d="m881.55 601.59c0-62.23-41.039-117.07-99.371-135.38-7.1289-75.574-70.934-134.89-148.33-134.89-74.543 0-137.3 56.16-147.47 128.4h-26.039c-78.238 0-141.89 63.648-141.89 141.88 0 78.254 63.66 141.9 141.89 141.9h47.879c9.9375 0 18-8.0625 18-18s-8.0625-18-18-18h-47.879c-58.379 0-105.89-47.508-105.89-105.9 0-58.379 47.508-105.88 105.89-105.88h42.637c9.8047 0 17.797-7.8359 18-17.652 1.1992-61.066 51.828-110.75 112.87-110.75 62.293 0 112.98 50.688 112.99 112.97 0 8.543 6 15.898 14.363 17.629 48.875 10.094 84.348 53.699 84.348 103.69 0 58.391-47.508 105.9-105.89 105.9h-29.785c-9.9375 0-18 8.0625-18 18s8.0625 18 18 18h32.34c0.875 0 1.7266-0.14453 2.5781-0.25391 75.844-2.75 136.75-65.148 136.75-141.66z"/>
  <path d="m660.17 755.28c-3.457-2.207-7.3789-3-11.184-2.6758-0.44531-0.023438-0.875-0.13281-1.332-0.13281h-35.629l33.371-52.57c5.3164-8.3867 2.832-19.512-5.5547-24.84-8.375-5.3164-19.5-2.8438-24.84 5.5547l-50.914 80.219c-0.23828 0.35937-0.35938 0.75781-0.57422 1.1523-0.32422 0.60156-0.66016 1.1875-0.91016 1.8125-0.22656 0.55078-0.34766 1.1172-0.51562 1.6797-0.16797 0.5625-0.34766 1.1172-0.46875 1.7031-0.12109 0.68359-0.15625 1.3438-0.20313 2.0273-0.035156 0.43359-0.13281 0.83984-0.13281 1.2734 0 0.085937 0.023438 0.16797 0.023438 0.25391 0.011718 0.68359 0.12109 1.332 0.20312 2.0039 0.070313 0.51562 0.097657 1.0547 0.20313 1.5586 0.12109 0.51562 0.3125 1.0078 0.46875 1.5117 0.19141 0.61328 0.33594 1.2344 0.58984 1.8008 0.21484 0.48047 0.50391 0.91016 0.75781 1.3672 0.28906 0.55078 0.5625 1.1289 0.91016 1.6445 0.3125 0.46875 0.71875 0.875 1.0781 1.3086 0.38281 0.45703 0.73047 0.94922 1.1641 1.3555 0.34766 0.34766 0.76953 0.63672 1.1641 0.96094 0.52734 0.44531 1.043 0.88672 1.6211 1.2734 0.070312 0.046874 0.13281 0.10937 0.20312 0.15625 0.16797 0.10937 0.34766 0.13281 0.51562 0.23828 1.1172 0.66016 2.293 1.1875 3.5508 1.5977 0.38281 0.13281 0.75781 0.25391 1.1523 0.34766 1.4023 0.35938 2.8555 0.61328 4.3789 0.625h0.035156 0.011719 38.496l-33.41 52.566c-5.3164 8.3867-2.832 19.512 5.5547 24.84 2.9883 1.8945 6.3242 2.7969 9.6367 2.7969 5.9531 0 11.773-2.9531 15.215-8.3516l50.914-80.219c5.3203-8.3789 2.8359-19.5-5.5508-24.84z"/>
 </g>
</svg>
