<?xml version="1.0" encoding="UTF-8"?>
<svg width="1200pt" height="1200pt" version="1.1" viewBox="0 0 1200 1200" xmlns="http://www.w3.org/2000/svg">
 <g>
  <path d="m814.56 271.44c-31.457 0.15625-61.574 12.75-83.785 35.027-22.211 22.277-34.711 52.434-34.773 83.891h24c0-25.172 10-49.316 27.801-67.117 17.801-17.801 41.945-27.801 67.121-27.801 25.172 0 49.316 10 67.117 27.801 17.801 17.801 27.801 41.945 27.801 67.117 0 25.176-10 49.316-27.801 67.121-17.801 17.801-41.945 27.801-67.117 27.801h-548.4v24h556.56c41.184-3.2031 77.754-27.547 96.602-64.301 18.848-36.754 17.273-80.656-4.1602-115.97-21.434-35.309-59.656-56.969-100.96-57.211z"/>
  <path d="m327.36 588.84h567.72v24h-567.72z"/>
  <path d="m814.56 904.56c-25.102-0.125-49.133-10.18-66.852-27.961-17.715-17.785-27.676-41.855-27.707-66.957h-24c-0.011719 31.043 12.117 60.859 33.793 83.082s51.18 35.086 82.215 35.848c31.031 0.76172 61.133-10.645 83.871-31.777 22.738-21.137 36.312-50.324 37.82-81.328 1.5078-31.008-9.168-61.375-29.746-84.617-20.582-23.238-49.434-37.512-80.395-39.77h-557.04v24h548.04c33.934 0 65.289 18.105 82.258 47.492 16.965 29.387 16.965 65.594 0 94.98-16.969 29.387-48.324 47.488-82.258 47.488z"/>
 </g>
</svg>
